<svg width="30" height="30" viewBox="0 0 30 30" fill="none" xmlns="http://www.w3.org/2000/svg">
<g clip-path="url(#clip0_2216_142)">
<path d="M29.1728 28.3565L20.12 1.16146C20.0805 1.04338 20.0049 0.940709 19.9038 0.867933C19.8028 0.795156 19.6815 0.755953 19.5569 0.755859H10.4324C10.1765 0.755859 9.94944 0.919059 9.86874 1.16206L0.780539 28.4627C0.750709 28.5519 0.742579 28.6469 0.756823 28.7399C0.771066 28.8328 0.807273 28.9211 0.862439 28.9973C0.974039 29.1527 1.15344 29.2442 1.34394 29.2442H28.6559C28.7599 29.2443 28.8622 29.2171 28.9524 29.1653C29.0426 29.1135 29.1176 29.039 29.1699 28.9491C29.2222 28.8592 29.25 28.7571 29.2504 28.6531C29.2509 28.5491 29.2243 28.4468 29.1728 28.3565ZM16.2143 25.3991C16.2143 25.6352 16.1205 25.8617 15.9535 26.0287C15.7866 26.1957 15.5601 26.2895 15.3239 26.2895C15.0878 26.2895 14.8613 26.1957 14.6943 26.0287C14.5273 25.8617 14.4335 25.6352 14.4335 25.3991V19.2629C14.4335 19.0267 14.5273 18.8002 14.6943 18.6333C14.8613 18.4663 15.0878 18.3725 15.3239 18.3725C15.5601 18.3725 15.7866 18.4663 15.9535 18.6333C16.1205 18.8002 16.2143 19.0267 16.2143 19.2629V25.3991ZM16.2143 13.802C16.2143 14.0381 16.1205 14.2646 15.9535 14.4316C15.7866 14.5986 15.5601 14.6924 15.3239 14.6924C15.0878 14.6924 14.8613 14.5986 14.6943 14.4316C14.5273 14.2646 14.4335 14.0381 14.4335 13.802V9.44296C14.4335 9.20681 14.5273 8.98033 14.6943 8.81335C14.8613 8.64637 15.0878 8.55256 15.3239 8.55256C15.5601 8.55256 15.7866 8.64637 15.9535 8.81335C16.1205 8.98033 16.2143 9.20681 16.2143 9.44296V13.802ZM16.2143 4.65676C16.2143 4.89286 16.1205 5.11928 15.9536 5.28628C15.7867 5.45328 15.5603 5.54722 15.3242 5.54746C15.088 5.54738 14.8615 5.45351 14.6945 5.28649C14.5275 5.11947 14.4336 4.89296 14.4335 4.65676V3.80626C14.4305 3.68739 14.4512 3.5691 14.4946 3.45837C14.5379 3.34764 14.603 3.24672 14.686 3.16155C14.769 3.07638 14.8682 3.00869 14.9777 2.96247C15.0873 2.91625 15.205 2.89244 15.3239 2.89244C15.4429 2.89244 15.5606 2.91625 15.6701 2.96247C15.7797 3.00869 15.8789 3.07638 15.9619 3.16155C16.0449 3.24672 16.11 3.34764 16.1533 3.45837C16.1967 3.5691 16.2174 3.68739 16.2143 3.80626V4.65676Z" fill="white"/>
</g>
<defs>
<clipPath id="clip0_2216_142">
<rect width="30" height="30" fill="white"/>
</clipPath>
</defs>
</svg>
